# xmcd
#
# Track frame offsets:
#	150
#	26025
#	44361
#	64334
#	90454
#	117294
#	150094
#	174310
#	237245
#	252902
#	285605
#
# Disc length: 4268 seconds
#
# Revision: 1
# Processed by: cddbd v1.5.2PL0 Copyright (c) Steve Scherf et al.
# Submitted via: audiograbber 1.83.01
#
DISCID=8810aa0b
DTITLE=Pat The White - The Quebec City Sessions
DYEAR=2007
DGENRE=Blues
TTITLE0=Tuff Enuff (With Kim Richardson)
TTITLE1=Nothing Else To Do
TTITLE2=More Bad News
TTITLE3=Promised Land
TTITLE4=Kiss From Your Sister
TTITLE5=Ain'T That Lovin' You (With Bob Walsh)
TTITLE6=Night Eyes
TTITLE7=Whippin' Post
TTITLE8=Looking Out The Window
TTITLE9=Soul Of A Dead Man (Bonus Track)
TTITLE10=Data
EXTD=
EXTT0=
EXTT1=
EXTT2=
EXTT3=
EXTT4=
EXTT5=
EXTT6=
EXTT7=
EXTT8=
EXTT9=
EXTT10=
PLAYORDER=
